<?xml version="1.0" encoding="utf-8"?>
<svg xmlns="http://www.w3.org/2000/svg" height="128" width="128" viewBox="0 0 128 128">
  <g>
    <rect height="128" width="128" fill="#000000" />
    <path id="path1" transform="rotate(0,64,64) translate(21.8181818181818,8) scale(0.484848484848485,0.484848484848485)  " fill="#FFFFFF" d="M40,42L37.8125,42.3125 36.25,43.25 35.3125,44.8125038146973 35,47 35,130 101,130 107.3125,129.78125 113.25,129.125 118.812492370605,128.03125 123.999992370605,126.5 128.8125,124.53125 133.25,122.125 137.3125,119.28125 141,116 145.8125,110 149.25,103 151.3125,95 152,86 151.796875,81.578125 151.1875,77.3125 150.171875,73.203125 148.75,69.25 146.921875,65.453125 144.6875,61.8125038146973 142.046875,58.328125 139,55 135.53125,51.9531288146973 131.625,49.3125038146973 127.281242370605,47.0781288146973 122.499992370605,45.2500038146973 117.281242370605,43.8281288146973 111.624992370605,42.8125 105.53125,42.203125 99,42 40,42z M33,26L96,26 105.9375,26.328125 115.25,27.3125 123.9375,28.953125 132,31.25 139.4375,34.203125 146.25,37.8125 152.4375,42.078125 158,47 161.75,51.109375 165,55.4375038146973 167.75,59.9843788146973 170,64.75 171.75,69.734375 173,74.9375 173.75,80.359375 174,86 173.734375,91.890625 172.9375,97.5625 171.609375,103.015625 169.75,108.25 167.359375,113.265625 164.4375,118.0625 160.984375,122.640625 157,127 151.828125,131.453125 145.8125,135.3125 138.953125,138.578125 131.25,141.25 122.703117370605,143.328125 113.312492370605,144.8125 103.078125,145.703125 92,146 35,146 35,220 34.375,224.8125 32.5,228.25 29.375,230.3125 25,231 20.625,230.3125 17.5,228.25 15.6249990463257,224.8125 14.9999990463257,220 14.9999990463257,44 15.2812490463257,39.78125 16.125,36.125 17.53125,33.03125 19.5,30.5 22.03125,28.53125 25.125,27.125 28.78125,26.28125 33,26z" />
  </g>
</svg>

