<?xml version="1.0" encoding="utf-8"?>
<svg xmlns="http://www.w3.org/2000/svg" height="128" width="128" viewBox="0 0 128 128">
  <g>
    <rect height="128" width="128" fill="#000000" />
    <path id="path1" transform="rotate(0,64,64) translate(20.1232432432432,8) scale(0.484324324324324,0.484324324324324)  " fill="#FFFFFF" d="M40,42L37.8125,42.3125 36.25,43.25 35.3125,44.8125038146973 35,47 35,118 114,118 119.59375,117.796875 124.875,117.187507629395 129.84375,116.171882629395 134.5,114.750007629395 138.84375,112.921882629395 142.875,110.6875 146.59375,108.046875 150,105 153.9375,100.0625 156.75,94.25 158.4375,87.5625 159,80 158.4375,72.4375076293945 156.75,65.75 153.9375,59.9375 150,55 146.625,51.9531288146973 143,49.3125038146973 139.125,47.0781288146973 135,45.2500038146973 130.625,43.8281288146973 126,42.8125 121.125,42.203125 116,42 40,42z M33,26L112,26 120.96875,26.296875 129.375,27.1875019073486 137.21875,28.6718769073486 144.5,30.7500038146973 151.21875,33.4218788146973 157.375,36.6875038146973 162.96875,40.5468788146973 168,45 171.046875,48.359375 173.6875,51.9375038146973 175.921875,55.7343788146973 177.75,59.7500038146973 179.171875,63.9843788146973 180.1875,68.4375 180.796875,73.109375 181,78 180.3125,87.4375076293945 178.25,95.7500076293945 174.8125,102.9375 170,109 163.25,114.500007629395 155,119.000007629395 145.25,122.500007629395 134,125 141.625,127.375 148.5,130.5 154.625,134.375 160,139 164.9375,145.25 168.75,153 171.4375,162.25 173,173 174,186.5 175,199 175.6875,203.8125 176.75,208.25 178.1875,212.3125 180,216 180.796875,218.421875 181.1875,220.6875 181.171875,222.796875 180.75,224.75 179.921875,226.546875 178.6875,228.1875 177.046875,229.671875 175,231 169.5625,231.25 165.25,230 163.515625,228.8125 162.0625,227.25 160.890625,225.3125 160,223 159,218.75 158,214 157,208.75 156,203 155.5,196.3125 155,189.25 154.5,181.8125 154,174 152.1875,165.1875 149.75,157.75 146.6875,151.6875 143,147 139.484375,143.953125 135.4375,141.3125 130.859375,139.078125 125.75,137.25 120.109375,135.828125 113.9375,134.8125 107.234375,134.203125 100,134 35,134 35,220 34.375,224.8125 32.5,228.25 29.375,230.3125 25.0000019073486,231 20.625,230.3125 17.5,228.25 15.625,224.8125 15.0000009536743,220 15.0000009536743,44 15.28125,39.78125 16.125,36.125 17.53125,33.03125 19.5,30.5 22.03125,28.53125 25.125,27.125 28.78125,26.28125 33,26z" />
  </g>
</svg>

